<svg xmlns="http://www.w3.org/2000/svg" viewBox="0 0 400 400" width="400" height="400" preserveAspectRatio="xMidYMid meet" style="width: 100%; height: 100%; transform: translate3d(0px, 0px, 0px);"><defs><clipPath id="__lottie_element_22"><rect width="400" height="400" x="0" y="0"></rect></clipPath></defs><g clip-path="url(#__lottie_element_22)"><g style="display: none;"><g><path></path></g></g><g transform="matrix(1,0,0,1,68.64500427246094,60.52000427246094)" opacity="1" style="display: block;"><g opacity="1" transform="matrix(1,0,0,1,128.35499572753906,139.47999572753906)"><path fill="rgb(255,197,16)" fill-opacity="1" d=" M122.83999633789062,0 C122.83999633789062,67.84300231933594 67.84300231933594,122.83999633789062 0,122.83999633789062 C-67.84200286865234,122.83999633789062 -122.83999633789062,67.84300231933594 -122.83999633789062,0 C-122.83999633789062,-67.84200286865234 -67.84200286865234,-122.83999633789062 0,-122.83999633789062 C67.84300231933594,-122.83999633789062 122.83999633789062,-67.84200286865234 122.83999633789062,0z"></path><path stroke-linecap="round" stroke-linejoin="round" fill-opacity="0" stroke="rgb(36,31,77)" stroke-opacity="1" stroke-width="2.206" d=" M122.83999633789062,0 C122.83999633789062,67.84300231933594 67.84300231933594,122.83999633789062 0,122.83999633789062 C-67.84200286865234,122.83999633789062 -122.83999633789062,67.84300231933594 -122.83999633789062,0 C-122.83999633789062,-67.84200286865234 -67.84200286865234,-122.83999633789062 0,-122.83999633789062 C67.84300231933594,-122.83999633789062 122.83999633789062,-67.84200286865234 122.83999633789062,0z"></path></g></g><g transform="matrix(0.9999948740005493,0,0,0.9999948740005493,68.64535522460938,60.521976470947266)" opacity="1" style="display: block;"><g opacity="1" transform="matrix(1,0,0,1,162.13400268554688,192.9530029296875)"><path fill="rgb(36,31,77)" fill-opacity="1" d=" M63.77299880981445,-47.025001525878906 C59.073001861572266,-50.2760009765625 53.053001403808594,-46.47800064086914 50.19499969482422,-42.558998107910156 C47.1619987487793,-38.400001525878906 47.132999420166016,-31.190000534057617 42.893001556396484,-28.07900047302246 C39.79100036621094,-25.80299949645996 34.90700149536133,-27.513999938964844 31.30900001525879,-27.05699920654297 C28.08300018310547,-26.64699935913086 25.128000259399414,-24.948999404907227 22.597000122070312,-22.976999282836914 C20.750999450683594,-21.540000915527344 19.211999893188477,-19.864999771118164 18.35700035095215,-17.65999984741211 C16.910999298095703,-13.932000160217285 17.851999282836914,-9.5 15.069999694824219,-6.284999847412109 C8.762999534606934,1.003999948501587 -1.2660000324249268,-6.058000087738037 -9.059000015258789,-2.2009999752044678 C-11.873000144958496,-0.8080000281333923 -13.73799991607666,1.5049999952316284 -15.060999870300293,4.304999828338623 C-16.594999313354492,7.551000118255615 -17.16900062561035,11.994999885559082 -21.097999572753906,13.130000114440918 C-26.81100082397461,14.781000137329102 -32.66699981689453,11.854999542236328 -38.446998596191406,12.371000289916992 C-43.520999908447266,12.824000358581543 -48.26499938964844,15.734000205993652 -50.50699996948242,20.402000427246094 C-51.86600112915039,23.231000900268555 -52.86199951171875,24.840999603271484 -56.16600036621094,24.67300033569336 C-59.78799819946289,24.490999221801758 -63.4119987487793,24.108999252319336 -67.01100158691406,23.68400001525879 C-67.56099700927734,25.95599937438965 -67.88400268554688,28.285999298095703 -67.97699737548828,30.621999740600586 C-65.17500305175781,30.945999145507812 -62.374000549316406,31.268999099731445 -59.57099914550781,31.593000411987305 C-57.18899917602539,31.868999481201172 -54.78099822998047,32.150001525878906 -52.527000427246094,32.97100067138672 C-48.5880012512207,34.40800094604492 -45.42399978637695,37.37300109863281 -42.45500183105469,40.33300018310547 C-39.48500061035156,43.292999267578125 -36.50400161743164,46.387001037597656 -32.72200012207031,48.19900131225586 C-28.94099998474121,50.0099983215332 -24.100000381469727,50.275001525878906 -20.79199981689453,47.69900131225586 C-16.878000259399414,44.6510009765625 -16.773000717163086,38.97700119018555 -14.407999992370605,34.95600128173828 C-13.406999588012695,33.25400161743164 -11.927000045776367,31.756999969482422 -10.053000450134277,31.132999420166016 C-5.683000087738037,29.679000854492188 -2.944999933242798,34.229000091552734 0.08699999749660492,36.44900131225586 C4.376999855041504,39.59000015258789 9.473999977111816,42.03200149536133 14.89799976348877,40.729000091552734 C24.792999267578125,38.35100173950195 32.72600173950195,29.076000213623047 35.196998596191406,19.479000091552734 C35.77399826049805,17.23699951171875 36.16600036621094,14.786999702453613 37.78099822998047,13.128000259399414 C39.92900085449219,10.92199993133545 43.32400131225586,10.875 46.14799880981445,10.244999885559082 C50.77899932861328,9.211000442504883 54.64400100708008,7.183000087738037 56.17300033569336,2.3929998874664307 C57.167999267578125,-0.7210000157356262 56.970001220703125,-3.9560000896453857 56.25299835205078,-7.103000164031982 C55.6619987487793,-9.70199966430664 54.37900161743164,-12.406000137329102 55.47999954223633,-15.100000381469727 C56.22800064086914,-16.933000564575195 58,-18.52899932861328 59.28099822998047,-19.989999771118164 C62.92100143432617,-24.138999938964844 66.76300048828125,-28.423999786376953 67.46900177001953,-34.12799835205078 C67.97699737548828,-38.229000091552734 67.52999877929688,-44.426998138427734 63.77299880981445,-47.025001525878906z"></path></g></g><g transform="matrix(0.9999989867210388,0.000003388408003957011,-0.000003388408003957011,0.9999989867210388,68.6457748413086,60.519657135009766)" opacity="1" style="display: block;"><g opacity="1" transform="matrix(1,0,0,1,119.82599639892578,93.48600006103516)"><path fill="rgb(36,31,77)" fill-opacity="1" d=" M58.90399932861328,-12.552000045776367 C58.32500076293945,-13.145000457763672 57.84700012207031,-13.812999725341797 57.16600036621094,-14.315999984741211 C56.04100036621094,-15.147000312805176 55.15999984741211,-16.275999069213867 54.12699890136719,-17.21500015258789 C52.367000579833984,-18.816999435424805 50.518001556396484,-20.44700050354004 48.41600036621094,-21.56999969482422 C47.35200119018555,-22.13800048828125 46.03900146484375,-22.097000122070312 44.821998596191406,-21.95800018310547 C41.56100082397461,-21.586000442504883 39.069000244140625,-18.378000259399414 35.78300094604492,-18.256000518798828 C32.99300003051758,-18.152000427246094 31.819000244140625,-20.708999633789062 30.024999618530273,-22.5 C28.23200035095215,-24.291000366210938 26.349000930786133,-26.165000915527344 23.92799949645996,-27.285999298095703 C19.993000030517578,-29.108999252319336 15.854999542236328,-29.507999420166016 12.454999923706055,-26.447999954223633 C10.982000350952148,-25.12299919128418 10.59000015258789,-23.131999969482422 9.779000282287598,-21.422000885009766 C8.342000007629395,-18.391000747680664 7.300000190734863,-16.996000289916992 4.006999969482422,-19.2189998626709 C-0.40799999237060547,-22.197999954223633 -4.6579999923706055,-24.85099983215332 -10.086999893188477,-22.74799919128418 C-14.14799976348877,-21.174999237060547 -14.35099983215332,-17.4060001373291 -16.274999618530273,-14.024999618530273 C-19.5,-8.352999687194824 -24.475000381469727,-13.369999885559082 -28.99799919128418,-14.293000221252441 C-34.071998596191406,-15.32699966430664 -36.75400161743164,-12.045999526977539 -39.36899948120117,-8.348999977111816 C-42.32400131225586,-6.679999828338623 -44.36800003051758,-6.550000190734863 -47.81100082397461,-7.34499979019165 C-54.57600021362305,-8.906000137329102 -62.46799850463867,-10.03600025177002 -64.24700164794922,-1.5089999437332153 C-65.79199981689453,5.89900016784668 -59.10499954223633,9.315999984741211 -52.6349983215332,10.46399974822998 C-47.78499984741211,11.324999809265137 -42.09000015258789,10.510000228881836 -37.81700134277344,13.767999649047852 C-33.98400115966797,16.690000534057617 -31.408000946044922,21.358999252319336 -27.451000213623047,24.143999099731445 C-24.621999740600586,26.13599967956543 -21.229999542236328,26.886999130249023 -17.98200035095215,26.52400016784668 C-13.503999710083008,26.02199935913086 -11.352999687194824,22.280000686645508 -7.114999771118164,21.393999099731445 C-3.3519999980926514,20.60700035095215 -0.04500000178813934,23.253999710083008 2.992000102996826,25.025999069213867 C6.544000148773193,27.099000930786133 9.645000457763672,28.695999145507812 13.60200023651123,29.141000747680664 C16.854000091552734,29.507999420166016 19.72100067138672,28.993999481201172 22.31800079345703,27.159000396728516 C26.01099967956543,24.551000595092773 26.476999282836914,19.597000122070312 29.895000457763672,16.864999771118164 C34.15999984741211,13.454999923706055 39.040000915527344,16.986000061035156 43.69900131225586,17.263999938964844 C47.520999908447266,17.492000579833984 50.36899948120117,16.805999755859375 53.17900085449219,13.998000144958496 C54.74700164794922,12.428999900817871 55.04899978637695,11.32699966430664 56.263999938964844,8.630999565124512 C58.21699905395508,4.296999931335449 61.81399917602539,-2.0220000743865967 65.79199981689453,-5.50600004196167 C63.481998443603516,-7.880000114440918 61.20199966430664,-10.197999954223633 58.90399932861328,-12.552000045776367z"></path></g></g><g transform="matrix(0.9999962449073792,0.000014842236851109192,-0.000014842236851109192,0.9999962449073792,68.64776611328125,60.51776123046875)" opacity="1" style="display: block;"><g opacity="1" transform="matrix(1,0,0,1,134.08900451660156,162.8040008544922)"><path fill="rgb(36,31,77)" fill-opacity="1" d=" M21.173999786376953,0.3089999854564667 C23.184999465942383,-4.343999862670898 29.374000549316406,-2.7760000228881836 33.19499969482422,-3.996999979019165 C36.32899856567383,-4.999000072479248 39.13999938964844,-6.935999870300293 40.58300018310547,-10.116999626159668 C41.388999938964844,-11.892000198364258 41.65399932861328,-13.861000061035156 41.75299835205078,-15.79800033569336 C41.928001403808594,-19.266000747680664 44.513999938964844,-30.785999298095703 47.2239990234375,-33.124000549316406 C51.22100067138672,-36.569000244140625 60.97999954223633,-42.58300018310547 60.97999954223633,-42.58300018310547 C60.97999954223633,-42.58300018310547 60.07600021362305,-45.53300094604492 58.14099884033203,-47.119998931884766 C55.8650016784668,-45.222999572753906 48.67399978637695,-39.19599914550781 47.70399856567383,-38.393001556396484 C43.19499969482422,-34.6609992980957 37.70500183105469,-36.86000061035156 36.527000427246094,-37.0359992980957 C33.75400161743164,-37.446998596191406 31.451000213623047,-39.75600051879883 28.738000869750977,-40.53499984741211 C26.547000885009766,-41.16400146484375 24.312000274658203,-40.99300003051758 22.224000930786133,-39.981998443603516 C19.190000534057617,-38.512001037597656 17.735000610351562,-34.50400161743164 14.868000030517578,-33.24399948120117 C12.432000160217285,-32.17300033569336 10.388999938964844,-33.9379997253418 8.081999778747559,-34.94599914550781 C5.76200008392334,-35.959999084472656 3.240999937057495,-36.57099914550781 0.7059999704360962,-36.652000427246094 C-3.4159998893737793,-36.78300094604492 -8.098999977111816,-35.20899963378906 -9.739999771118164,-30.770000457763672 C-10.449999809265137,-28.847000122070312 -10.335000038146973,-26.79800033569336 -10.37399959564209,-24.791000366210938 C-10.444000244140625,-21.233999252319336 -10.791999816894531,-19.665000915527344 -14.593000411987305,-19.902000427246094 C-19.687999725341797,-20.2189998626709 -25.27400016784668,-20.013999938964844 -28.649999618530273,-14.98799991607666 C-31.177000045776367,-11.22700023651123 -29.840999603271484,-7.276000022888184 -29.510000228881836,-3.1649999618530273 C-28.95400047302246,3.7290000915527344 -35.46099853515625,2.7890000343322754 -39.637001037597656,5.316999912261963 C-44.321998596191406,8.152999877929688 -44.02199935913086,13.086999893188477 -43.75400161743164,17.90399932861328 C-44.56399917602539,21.041000366210938 -46.02399826049805,22.858999252319336 -48.69499969482422,24.606000900268555 C-53.939998626708984,28.038999557495117 -60.97999954223633,32.94200134277344 -57.47999954223633,40.52899932861328 C-54.43899917602539,47.12099838256836 -46.867000579833984,45.1609992980957 -42.124000549316406,41.775001525878906 C-38.569000244140625,39.236000061035156 -35.180999755859375,34.42900085449219 -30.726999282836914,34.04499816894531 C-26.731000900268555,33.70000076293945 -22.906999588012695,36.08300018310547 -18.79599952697754,35.724998474121094 C-15.857999801635742,35.46799850463867 -13.045999526977539,34.185001373291016 -10.892999649047852,31.989999771118164 C-7.925000190734863,28.961999893188477 -8.293000221252441,24.597000122070312 -5.965000152587891,21.4060001373291 C-3.8980000019073486,18.57200050354004 0.10599999874830246,19.25 3.0309998989105225,19.341999053955078 C6.451000213623047,19.451000213623047 9.593999862670898,19.28700065612793 12.842000007629395,17.92099952697754 C15.510000228881836,16.79800033569336 17.832000732421875,15.01200008392334 19.242000579833984,12.312000274658203 C21.24799919128418,8.472999572753906 19.56399917602539,4.038000106811523 21.173999786376953,0.3089999854564667z"></path></g></g><g transform="matrix(0.999995768070221,0,0,0.999995768070221,68.6452407836914,60.5203742980957)" opacity="1" style="display: block;"><g opacity="1" transform="matrix(1,0,0,1,103.77799987792969,50.20800018310547)"><path fill="rgb(255,0,112)" fill-opacity="1" d=" M9.357000350952148,-0.0010000000474974513 C9.357000350952148,5.166999816894531 5.166999816894531,9.357000350952148 -0.0010000000474974513,9.357000350952148 C-5.168000221252441,9.357000350952148 -9.357000350952148,5.166999816894531 -9.357000350952148,-0.0010000000474974513 C-9.357000350952148,-5.168000221252441 -5.168000221252441,-9.357000350952148 -0.0010000000474974513,-9.357000350952148 C5.166999816894531,-9.357000350952148 9.357000350952148,-5.168000221252441 9.357000350952148,-0.0010000000474974513z"></path></g></g><g transform="matrix(0.9999741315841675,0.000008751189852773678,-0.000008751189852773678,0.9999741315841675,68.65007019042969,60.52177047729492)" opacity="1" style="display: block;"><g opacity="1" transform="matrix(1,0,0,1,140.50100708007812,125.08599853515625)"><path fill="rgb(255,0,112)" fill-opacity="1" d=" M8.696000099182129,-0.0010000000474974513 C8.696000099182129,4.802000045776367 4.802999973297119,8.694999694824219 0,8.694999694824219 C-4.802999973297119,8.694999694824219 -8.696000099182129,4.802000045776367 -8.696000099182129,-0.0010000000474974513 C-8.696000099182129,-4.803999900817871 -4.802999973297119,-8.694999694824219 0,-8.694999694824219 C4.802999973297119,-8.694999694824219 8.696000099182129,-4.803999900817871 8.696000099182129,-0.0010000000474974513z"></path></g></g><g transform="matrix(1.0000251531600952,0,0,1.0000251531600952,68.64258575439453,60.51445388793945)" opacity="1" style="display: block;"><g opacity="1" transform="matrix(1,0,0,1,102.9540023803711,223.6790008544922)"><path fill="rgb(255,0,112)" fill-opacity="1" d=" M12.130999565124512,0 C12.130999565124512,6.699999809265137 6.699999809265137,12.130999565124512 0,12.130999565124512 C-6.699999809265137,12.130999565124512 -12.130999565124512,6.699999809265137 -12.130999565124512,0 C-12.130999565124512,-6.698999881744385 -6.699999809265137,-12.130999565124512 0,-12.130999565124512 C6.699999809265137,-12.130999565124512 12.130999565124512,-6.698999881744385 12.130999565124512,0z"></path></g></g><g transform="matrix(0.9999962449073792,0.000008751383575145155,-0.000008751383575145155,0.9999962449073792,5.539726257324219,-0.828948974609375)" opacity="1" style="display: block;"><g opacity="1" transform="matrix(1,0,0,1,68.64500427246094,60.52000427246094)"><g opacity="1" transform="matrix(1,0,0,1,206.59300231933594,112.26200103759766)"><path fill="rgb(255,255,255)" fill-opacity="1" d=" M-20.32200050354004,5.993000030517578 C-30.365999221801758,-12.458000183105469 -14.607999801635742,-30.05900001525879 -14.607999801635742,-30.05900001525879 C-14.607999801635742,-30.05900001525879 6.817999839782715,-37.25 16.86199951171875,-18.798999786376953 C30.365999221801758,6.01200008392334 22.0310001373291,37.249000549316406 22.0310001373291,37.249000549316406 C22.0310001373291,37.249000549316406 -6.816999912261963,30.80299949645996 -20.32200050354004,5.993000030517578z"></path><path stroke-linecap="round" stroke-linejoin="round" fill-opacity="0" stroke="rgb(36,31,77)" stroke-opacity="1" stroke-width="2.206" d=" M-20.32200050354004,5.993000030517578 C-30.365999221801758,-12.458000183105469 -14.607999801635742,-30.05900001525879 -14.607999801635742,-30.05900001525879 C-14.607999801635742,-30.05900001525879 6.817999839782715,-37.25 16.86199951171875,-18.798999786376953 C30.365999221801758,6.01200008392334 22.0310001373291,37.249000549316406 22.0310001373291,37.249000549316406 C22.0310001373291,37.249000549316406 -6.816999912261963,30.80299949645996 -20.32200050354004,5.993000030517578z"></path></g></g><g opacity="1" transform="matrix(1,0,0,1,68.64498901367188,60.52099609375)"><g opacity="1" transform="matrix(1,0,0,1,203.8280029296875,103.95899963378906)"><path fill="rgb(255,255,255)" fill-opacity="1" d=" M17.18000030517578,31.559999465942383 C17.18000030517578,31.559999465942383 -17.18000030517578,-31.559999465942383 -17.18000030517578,-31.559999465942383"></path><path stroke-linecap="round" stroke-linejoin="round" fill-opacity="0" stroke="rgb(36,31,77)" stroke-opacity="1" stroke-width="2.206" d=" M17.18000030517578,31.559999465942383 C17.18000030517578,31.559999465942383 -17.18000030517578,-31.559999465942383 -17.18000030517578,-31.559999465942383"></path></g></g></g><g transform="matrix(0.9999989867210388,0,0,0.9999989867210388,0.00023311864060815424,0.0005279184551909566)" opacity="1" style="display: block;"><g opacity="1" transform="matrix(1,0,0,1,68.64498901367188,60.52000427246094)"><g opacity="1" transform="matrix(1,0,0,1,170.77999877929688,75.32099914550781)"><path fill="rgb(255,0,112)" fill-opacity="1" d=" M25.393999099731445,31.511999130249023 C25.393999099731445,31.511999130249023 -36.76100158691406,-9.656999588012695 -36.76100158691406,-9.656999588012695 C-25.393999099731445,-26.819000244140625 -2.259000062942505,-31.511999130249023 14.902000427246094,-20.145000457763672 C32.0629997253418,-8.777999877929688 36.76100158691406,14.35099983215332 25.393999099731445,31.511999130249023z"></path></g></g><g opacity="1" transform="matrix(1,0,0,1,68.64498901367188,60.52100372314453)"><g opacity="1" transform="matrix(1,0,0,1,185.58700561523438,87.57599639892578)"><path fill="rgb(255,255,255)" fill-opacity="1" d=" M-7.335000038146973,-0.5740000009536743 C-7.335000038146973,-0.5740000009536743 -0.7390000224113464,2.73799991607666 4.151000022888184,3.0179998874664307 C5.765999794006348,3.109999895095825 7.150000095367432,1.8760000467300415 7.243000030517578,0.2619999945163727 C7.335000038146973,-1.3530000448226929 6.10099983215332,-2.739000082015991 4.486000061035156,-2.8310000896453857 C-0.40400001406669617,-3.1110000610351562 -7.335000038146973,-0.5740000009536743 -7.335000038146973,-0.5740000009536743z"></path></g></g><g opacity="1" transform="matrix(1,0,0,1,68.64500427246094,60.52000427246094)"><g opacity="1" transform="matrix(1,0,0,1,177.19700622558594,68.68399810791016)"><path fill="rgb(255,255,255)" fill-opacity="1" d=" M-4.869999885559082,6.546999931335449 C-4.869999885559082,6.546999931335449 1.2949999570846558,2.490999937057495 3.9830000400543213,-1.6030000448226929 C4.869999885559082,-2.9560000896453857 4.493000030517578,-4.770999908447266 3.1410000324249268,-5.658999919891357 C1.7890000343322754,-6.546999931335449 -0.027000000700354576,-6.171000003814697 -0.9150000214576721,-4.817999839782715 C-3.6019999980926514,-0.7239999771118164 -4.869999885559082,6.546999931335449 -4.869999885559082,6.546999931335449z"></path></g></g><g opacity="1" transform="matrix(1,0,0,1,68.64500427246094,60.519996643066406)"><g opacity="1" transform="matrix(1,0,0,1,154.875,67.59400177001953)"><path fill="rgb(255,255,255)" fill-opacity="1" d=" M4.296000003814697,6.885000228881836 C4.296000003814697,6.885000228881836 3.865999937057495,-0.4830000102519989 1.6640000343322754,-4.857999801635742 C0.9359999895095825,-6.302999973297119 -0.824999988079071,-6.885000228881836 -2.2699999809265137,-6.1570000648498535 C-3.7149999141693115,-5.428999900817871 -4.296000003814697,-3.6689999103546143 -3.569000005722046,-2.2239999771118164 C-1.3669999837875366,2.1510000228881836 4.296000003814697,6.885000228881836 4.296000003814697,6.885000228881836z"></path></g></g></g><g transform="matrix(0.9999962449073792,0.000008751383575145155,-0.000008751383575145155,0.9999962449073792,0.0032323861960321665,-0.0011383412638679147)" opacity="1" style="display: block;"><g opacity="1" transform="matrix(1,0,0,1,68.64498901367188,60.52000427246094)"><g opacity="1" transform="matrix(1,0,0,1,189.5749969482422,174.6510009765625)"><path fill="rgb(255,0,112)" fill-opacity="1" d=" M-31.065000534057617,26.29199981689453 C-31.065000534057617,26.29199981689453 8.142999649047852,-37.117000579833984 8.142999649047852,-37.117000579833984 C25.652000427246094,-26.29199981689453 31.065000534057617,-3.315000057220459 20.23900032043457,14.192000389099121 C9.413999557495117,31.700000762939453 -13.557000160217285,37.11800003051758 -31.065000534057617,26.29199981689453z"></path></g></g><g opacity="1" transform="matrix(1,0,0,1,68.64500427246094,60.519989013671875)"><g opacity="1" transform="matrix(1,0,0,1,177.51199340820312,189.7310028076172)"><path fill="rgb(255,255,255)" fill-opacity="1" d=" M0.26100000739097595,-7.320000171661377 C0.26100000739097595,-7.320000171661377 -2.8440001010894775,-0.6230000257492065 -2.9709999561309814,4.2729997634887695 C-3.013000011444092,5.889999866485596 -1.7369999885559082,7.235000133514404 -0.11900000274181366,7.2769999504089355 C1.4980000257492065,7.320000171661377 2.8440001010894775,6.041999816894531 2.885999917984009,4.425000190734863 C3.013000011444092,-0.47099998593330383 0.26100000739097595,-7.320000171661377 0.26100000739097595,-7.320000171661377z"></path></g></g><g opacity="1" transform="matrix(1,0,0,1,68.64498901367188,60.52000427246094)"><g opacity="1" transform="matrix(1,0,0,1,196,180.83999633789062)"><path fill="rgb(255,255,255)" fill-opacity="1" d=" M-6.6479997634887695,-4.71999979019165 C-6.6479997634887695,-4.71999979019165 -2.4010000228881836,1.3170000314712524 1.7760000228881836,3.875 C3.1549999713897705,4.71999979019165 4.958000183105469,4.2870001792907715 5.803999900817871,2.9070000648498535 C6.6479997634887695,1.527999997138977 6.215000152587891,-0.2759999930858612 4.835999965667725,-1.1200000047683716 C0.6589999794960022,-3.678999900817871 -6.6479997634887695,-4.71999979019165 -6.6479997634887695,-4.71999979019165z"></path></g></g><g opacity="1" transform="matrix(1,0,0,1,68.64500427246094,60.519989013671875)"><g opacity="1" transform="matrix(1,0,0,1,196.49600219726562,158.48899841308594)"><path fill="rgb(255,255,255)" fill-opacity="1" d=" M-6.801000118255615,4.458000183105469 C-6.801000118255615,4.458000183105469 0.550000011920929,3.7990000247955322 4.854000091552734,1.4609999656677246 C6.276000022888184,0.6890000104904175 6.801000118255615,-1.0889999866485596 6.0289998054504395,-2.510999917984009 C5.256999969482422,-3.931999921798706 3.4779999256134033,-4.459000110626221 2.056999921798706,-3.687999963760376 C-2.246999979019165,-1.350000023841858 -6.801000118255615,4.458000183105469 -6.801000118255615,4.458000183105469z"></path></g></g></g><g transform="matrix(0.9999989867210388,0,0,0.9999989867210388,0.00031002293690107763,0.0004894662997685373)" opacity="1" style="display: block;"><g opacity="1" transform="matrix(1,0,0,1,68.64500427246094,60.52000427246094)"><g opacity="1" transform="matrix(1,0,0,1,52.44599914550781,131.9429931640625)"><path fill="rgb(255,255,255)" fill-opacity="1" d=" M25.198999404907227,16.884000778198242 C23.69700050354004,45.5890007019043 -2.184999942779541,52.356998443603516 -2.184999942779541,52.356998443603516 C-2.184999942779541,52.356998443603516 -27.2189998626709,42.92599868774414 -25.716999053955078,14.220999717712402 C-23.697999954223633,-24.375999450683594 3.2939999103546143,-52.356998443603516 3.2939999103546143,-52.356998443603516 C3.2939999103546143,-52.356998443603516 27.2189998626709,-21.71299934387207 25.198999404907227,16.884000778198242z"></path><path stroke-linecap="round" stroke-linejoin="round" fill-opacity="0" stroke="rgb(36,31,77)" stroke-opacity="1" stroke-width="2.206" d=" M25.198999404907227,16.884000778198242 C23.69700050354004,45.5890007019043 -2.184999942779541,52.356998443603516 -2.184999942779541,52.356998443603516 C-2.184999942779541,52.356998443603516 -27.2189998626709,42.92599868774414 -25.716999053955078,14.220999717712402 C-23.697999954223633,-24.375999450683594 3.2939999103546143,-52.356998443603516 3.2939999103546143,-52.356998443603516 C3.2939999103546143,-52.356998443603516 27.2189998626709,-21.71299934387207 25.198999404907227,16.884000778198242z"></path></g></g><g opacity="1" transform="matrix(1,0,0,1,68.64500427246094,60.52099609375)"><g opacity="1" transform="matrix(1,0,0,1,52.03300094604492,150.4530029296875)"><path fill="rgb(255,255,255)" fill-opacity="1" d=" M2.569000005722046,-49.0989990234375 C2.569000005722046,-49.0989990234375 -2.569000005722046,49.0989990234375 -2.569000005722046,49.0989990234375"></path><path stroke-linecap="round" stroke-linejoin="round" fill-opacity="0" stroke="rgb(36,31,77)" stroke-opacity="1" stroke-width="2.206" d=" M2.569000005722046,-49.0989990234375 C2.569000005722046,-49.0989990234375 -2.569000005722046,49.0989990234375 -2.569000005722046,49.0989990234375"></path></g></g></g><g transform="matrix(0.9999948740005493,0,0,0.9999948740005493,0.0006432748632505536,0.0007201791740953922)" opacity="1" style="display: block;"><g opacity="1" transform="matrix(1,0,0,1,68.6449966430664,60.52101135253906)"><g opacity="1" transform="matrix(1,0,0,1,78.64199829101562,139.27200317382812)"><path fill="rgb(255,0,112)" fill-opacity="1" d=" M18.02899932861328,-37.40999984741211 C18.02899932861328,-37.40999984741211 19.018999099731445,37.137001037597656 19.018999099731445,37.137001037597656 C-1.5640000104904175,37.40999984741211 -18.472000122070312,20.937999725341797 -18.7450008392334,0.35499998927116394 C-19.018999099731445,-20.22800064086914 -2.553999900817871,-37.137001037597656 18.02899932861328,-37.40999984741211z"></path></g></g><g opacity="1" transform="matrix(1,0,0,1,68.6449966430664,60.52000427246094)"><g opacity="1" transform="matrix(1,0,0,1,85.70099639892578,121.16500091552734)"><path fill="rgb(255,255,255)" fill-opacity="1" d=" M4.677999973297119,6.673999786376953 C4.677999973297119,6.673999786376953 3.6989998817443848,-0.6399999856948853 1.1759999990463257,-4.839000225067139 C0.34299999475479126,-6.224999904632568 -1.4570000171661377,-6.673999786376953 -2.8429999351501465,-5.841000080108643 C-4.230000019073486,-5.007999897003174 -4.677999973297119,-3.2079999446868896 -3.8450000286102295,-1.8209999799728394 C-1.3220000267028809,2.377000093460083 4.677999973297119,6.673999786376953 4.677999973297119,6.673999786376953z"></path></g></g><g opacity="1" transform="matrix(1,0,0,1,68.64500427246094,60.52000427246094)"><g opacity="1" transform="matrix(1,0,0,1,76.6760025024414,139.54100036621094)"><path fill="rgb(255,255,255)" fill-opacity="1" d=" M7.314000129699707,-0.17599999904632568 C7.314000129699707,-0.17599999904632568 0.48899999260902405,-2.9860000610351562 -4.4079999923706055,-2.9000000953674316 C-6.025000095367432,-2.871000051498413 -7.314000129699707,-1.5360000133514404 -7.285999774932861,0.08100000023841858 C-7.256999969482422,1.6979999542236328 -5.922999858856201,2.9860000610351562 -4.306000232696533,2.9579999446868896 C0.5910000205039978,2.871999979019165 7.314000129699707,-0.17599999904632568 7.314000129699707,-0.17599999904632568z"></path></g></g><g opacity="1" transform="matrix(1,0,0,1,68.6449966430664,60.52000427246094)"><g opacity="1" transform="matrix(1,0,0,1,86.2760009765625,157.43800354003906)"><path fill="rgb(255,255,255)" fill-opacity="1" d=" M4.501999855041504,-6.7779998779296875 C4.501999855041504,-6.7779998779296875 -1.343999981880188,-2.2720000743865967 -3.7179999351501465,2.01200008392334 C-4.501999855041504,3.4260001182556152 -3.990999937057495,5.209000110626221 -2.5759999752044678,5.993000030517578 C-1.1619999408721924,6.7779998779296875 0.6209999918937683,6.265999794006348 1.4049999713897705,4.8520002365112305 C3.7799999713897705,0.5680000185966492 4.501999855041504,-6.7779998779296875 4.501999855041504,-6.7779998779296875z"></path></g></g></g><g transform="matrix(0.9839995503425598,0.1781652569770813,-0.1781652569770813,0.9839995503425598,38.8331413269043,-32.432838439941406)" opacity="1" style="display: none;"><g opacity="1" transform="matrix(1,0,0,1,-204.0709991455078,57.993995666503906)"><g opacity="1" transform="matrix(1,0,0,1,389.0199890136719,118.56800079345703)"><path stroke-linecap="round" stroke-linejoin="round" fill-opacity="0" stroke="rgb(36,31,77)" stroke-opacity="1" stroke-width="2.206" d="M0 0"></path></g></g><g opacity="1" transform="matrix(1,0,0,1,-204.07101440429688,57.993988037109375)"><g opacity="1" transform="matrix(0,0,0,0,365.739013671875,167.9320068359375)"><path fill="rgb(36,31,77)" fill-opacity="1" d=" M2.558000087738037,2.805999994277954 C1.0080000162124634,4.218999862670898 -1.3940000534057617,4.107999801635742 -2.806999921798706,2.556999921798706 C-4.21999979019165,1.0069999694824219 -4.107999801635742,-1.3949999809265137 -2.558000087738037,-2.806999921798706 C-1.0080000162124634,-4.21999979019165 1.3940000534057617,-4.109000205993652 2.806999921798706,-2.558000087738037 C4.21999979019165,-1.0080000162124634 4.107999801635742,1.3940000534057617 2.558000087738037,2.805999994277954z"></path><path stroke-linecap="round" stroke-linejoin="round" fill-opacity="0" stroke="rgb(36,31,77)" stroke-opacity="1" stroke-width="2.206" d=" M2.558000087738037,2.805999994277954 C1.0080000162124634,4.218999862670898 -1.3940000534057617,4.107999801635742 -2.806999921798706,2.556999921798706 C-4.21999979019165,1.0069999694824219 -4.107999801635742,-1.3949999809265137 -2.558000087738037,-2.806999921798706 C-1.0080000162124634,-4.21999979019165 1.3940000534057617,-4.109000205993652 2.806999921798706,-2.558000087738037 C4.21999979019165,-1.0080000162124634 4.107999801635742,1.3940000534057617 2.558000087738037,2.805999994277954z"></path></g></g><g opacity="1" transform="matrix(1,0,0,1,-204.0699920654297,57.993995666503906)"><g opacity="1" transform="matrix(0,0,0,0,431.4339904785156,77.19999694824219)"><path fill="rgb(36,31,77)" fill-opacity="1" d=" M2.010999917984009,2.2060000896453857 C0.7919999957084656,3.315999984741211 -1.0950000286102295,3.2279999256134033 -2.2049999237060547,2.009999990463257 C-3.315999984741211,0.7919999957084656 -3.2290000915527344,-1.0959999561309814 -2.010999917984009,-2.2060000896453857 C-0.7919999957084656,-3.315999984741211 1.0950000286102295,-3.2290000915527344 2.2049999237060547,-2.010999917984009 C3.315999984741211,-0.7919999957084656 3.2290000915527344,1.0959999561309814 2.010999917984009,2.2060000896453857z"></path><path stroke-linecap="round" stroke-linejoin="round" fill-opacity="0" stroke="rgb(36,31,77)" stroke-opacity="1" stroke-width="2.206" d=" M2.010999917984009,2.2060000896453857 C0.7919999957084656,3.315999984741211 -1.0950000286102295,3.2279999256134033 -2.2049999237060547,2.009999990463257 C-3.315999984741211,0.7919999957084656 -3.2290000915527344,-1.0959999561309814 -2.010999917984009,-2.2060000896453857 C-0.7919999957084656,-3.315999984741211 1.0950000286102295,-3.2290000915527344 2.2049999237060547,-2.010999917984009 C3.315999984741211,-0.7919999957084656 3.2290000915527344,1.0959999561309814 2.010999917984009,2.2060000896453857z"></path></g></g></g><g transform="matrix(0,0,0,0,155.0596466064453,237.4832305908203)" opacity="1" style="display: none;"><g opacity="1" transform="matrix(1,0,0,1,347.4320068359375,127.28700256347656)"><path fill="rgb(255,0,112)" fill-opacity="1" d=" M9.723999977111816,0 C9.723999977111816,5.369999885559082 5.36899995803833,9.723999977111816 -0.0010000000474974513,9.723999977111816 C-5.370999813079834,9.723999977111816 -9.723999977111816,5.369999885559082 -9.723999977111816,0 C-9.723999977111816,-5.369999885559082 -5.370999813079834,-9.723999977111816 -0.0010000000474974513,-9.723999977111816 C5.36899995803833,-9.723999977111816 9.723999977111816,-5.369999885559082 9.723999977111816,0z"></path></g></g><g transform="matrix(0,0,0,0,279.6945495605469,141.8565216064453)" opacity="1" style="display: none;"><g opacity="1" transform="matrix(1,0,0,1,497.7409973144531,172.95599365234375)"><path fill="rgb(255,0,112)" fill-opacity="1" d=" M9.723999977111816,0 C9.723999977111816,5.369999885559082 5.36899995803833,9.723999977111816 -0.0010000000474974513,9.723999977111816 C-5.370999813079834,9.723999977111816 -9.723999977111816,5.369999885559082 -9.723999977111816,0 C-9.723999977111816,-5.369999885559082 -5.370999813079834,-9.723999977111816 -0.0010000000474974513,-9.723999977111816 C5.36899995803833,-9.723999977111816 9.723999977111816,-5.369999885559082 9.723999977111816,0z"></path></g></g><g transform="matrix(0,0,0,0,239.32290649414062,285.8553466796875)" opacity="1" style="display: none;"><g opacity="1" transform="matrix(1,0,0,1,357.156005859375,223.9600067138672)"><path fill="rgb(255,0,112)" fill-opacity="1" d=" M7.47599983215332,-0.0010000000474974513 C7.47599983215332,4.127999782562256 4.129000186920166,7.4770002365112305 0,7.4770002365112305 C-4.129000186920166,7.4770002365112305 -7.47599983215332,4.127999782562256 -7.47599983215332,-0.0010000000474974513 C-7.47599983215332,-4.129000186920166 -4.129000186920166,-7.4770002365112305 0,-7.4770002365112305 C4.129000186920166,-7.4770002365112305 7.47599983215332,-4.129000186920166 7.47599983215332,-0.0010000000474974513z"></path></g></g><g transform="matrix(0,0,0,0,144.22421264648438,214.40045166015625)" opacity="1" style="display: none;"><g opacity="1" transform="matrix(1,0,0,1,359.8919982910156,105.03900146484375)"><path fill="rgb(255,0,112)" fill-opacity="1" d=" M4.739999771118164,0 C4.739999771118164,2.617000102996826 2.617000102996826,4.738999843597412 -0.0010000000474974513,4.738999843597412 C-2.618000030517578,4.738999843597412 -4.739999771118164,2.617000102996826 -4.739999771118164,0 C-4.739999771118164,-2.618000030517578 -2.618000030517578,-4.738999843597412 -0.0010000000474974513,-4.738999843597412 C2.617000102996826,-4.738999843597412 4.739999771118164,-2.618000030517578 4.739999771118164,0z"></path></g></g><g transform="matrix(0,0,0,0,291.38275146484375,163.71095275878906)" opacity="1" style="display: none;"><g opacity="1" transform="matrix(1,0,0,1,486.7749938964844,195.1820068359375)"><path fill="rgb(255,0,112)" fill-opacity="1" d=" M4.739999771118164,0 C4.739999771118164,2.617000102996826 2.617000102996826,4.738999843597412 -0.0010000000474974513,4.738999843597412 C-2.618000030517578,4.738999843597412 -4.739999771118164,2.617000102996826 -4.739999771118164,0 C-4.739999771118164,-2.617000102996826 -2.618000030517578,-4.738999843597412 -0.0010000000474974513,-4.738999843597412 C2.617000102996826,-4.738999843597412 4.739999771118164,-2.617000102996826 4.739999771118164,0z"></path></g></g><g transform="matrix(0.9839995503425598,0.1781652569770813,-0.1781652569770813,0.9839995503425598,38.83320617675781,-32.432682037353516)" opacity="1" style="display: none;"><g opacity="1" transform="matrix(1,0,0,1,-204.0709991455078,57.99400329589844)"><g opacity="1" transform="matrix(1,0,0,1,350.7239990234375,147.54299926757812)"><path stroke-linecap="round" stroke-linejoin="round" fill-opacity="0" stroke="rgb(36,31,77)" stroke-opacity="1" stroke-width="2.206" d="M0 0"></path></g></g><g opacity="1" transform="matrix(0.00000980166169028962,0,0,0.00000980166169028962,191.23912048339844,294.4886779785156)"><g opacity="1" transform="matrix(1,0,0,1,395.3139953613281,236.4969940185547)"><path fill="rgb(36,31,77)" fill-opacity="1" d=" M6.146999835968018,0 C6.146999835968018,3.3949999809265137 3.3940000534057617,6.145999908447266 -0.0010000000474974513,6.145999908447266 C-3.3959999084472656,6.145999908447266 -6.146999835968018,3.3949999809265137 -6.146999835968018,0 C-6.146999835968018,-3.3959999084472656 -3.3959999084472656,-6.145999908447266 -0.0010000000474974513,-6.145999908447266 C3.3940000534057617,-6.145999908447266 6.146999835968018,-3.3959999084472656 6.146999835968018,0z"></path><path stroke-linecap="round" stroke-linejoin="round" fill-opacity="0" stroke="rgb(36,31,77)" stroke-opacity="1" stroke-width="2.206" d=" M6.146999835968018,0 C6.146999835968018,3.3949999809265137 3.3940000534057617,6.145999908447266 -0.0010000000474974513,6.145999908447266 C-3.3959999084472656,6.145999908447266 -6.146999835968018,3.3949999809265137 -6.146999835968018,0 C-6.146999835968018,-3.3959999084472656 -3.3959999084472656,-6.145999908447266 -0.0010000000474974513,-6.145999908447266 C3.3940000534057617,-6.145999908447266 6.146999835968018,-3.3959999084472656 6.146999835968018,0z"></path></g></g><g opacity="1" transform="matrix(0.00000980166169028962,0,0,0.00000980166169028962,154.31448364257812,116.98042297363281)"><g opacity="1" transform="matrix(1,0,0,1,358.38800048828125,58.986000061035156)"><path fill="rgb(36,31,77)" fill-opacity="1" d=" M4.830999851226807,0 C4.830999851226807,2.6679999828338623 2.6670000553131104,4.830999851226807 -0.0010000000474974513,4.830999851226807 C-2.6689999103546143,4.830999851226807 -4.830999851226807,2.6679999828338623 -4.830999851226807,0 C-4.830999851226807,-2.6679999828338623 -2.6689999103546143,-4.830999851226807 -0.0010000000474974513,-4.830999851226807 C2.6670000553131104,-4.830999851226807 4.830999851226807,-2.6679999828338623 4.830999851226807,0z"></path><path stroke-linecap="round" stroke-linejoin="round" fill-opacity="0" stroke="rgb(36,31,77)" stroke-opacity="1" stroke-width="2.206" d=" M4.830999851226807,0 C4.830999851226807,2.6679999828338623 2.6670000553131104,4.830999851226807 -0.0010000000474974513,4.830999851226807 C-2.6689999103546143,4.830999851226807 -4.830999851226807,2.6679999828338623 -4.830999851226807,0 C-4.830999851226807,-2.6679999828338623 -2.6689999103546143,-4.830999851226807 -0.0010000000474974513,-4.830999851226807 C2.6670000553131104,-4.830999851226807 4.830999851226807,-2.6679999828338623 4.830999851226807,0z"></path></g></g></g><g transform="matrix(0.9839995503425598,0.1781652569770813,-0.1781652569770813,0.9839995503425598,38.832523345947266,-32.43302536010742)" opacity="1" style="display: none;"><g opacity="1" transform="matrix(1,0,0,1,-204.07000732421875,57.99400329589844)"><g opacity="1" transform="matrix(1,0,0,1,427.25201416015625,159.08999633789062)"><path stroke-linecap="round" stroke-linejoin="round" fill-opacity="0" stroke="rgb(36,31,77)" stroke-opacity="1" stroke-width="2.206" d="M0 0"></path></g></g><g opacity="1" transform="matrix(1,0,0,1,-204.07101440429688,57.993995666503906)"><g opacity="1" transform="matrix(0,0,0,0,489.4570007324219,102.68199920654297)"><path fill="rgb(36,31,77)" fill-opacity="1" d=" M-1.8250000476837158,-5.10099983215332 C0.9919999837875366,-6.109000205993652 4.0929999351501465,-4.642000198364258 5.10099983215332,-1.8250000476837158 C6.109000205993652,0.9929999709129333 4.642000198364258,4.0929999351501465 1.8250000476837158,5.10099983215332 C-0.9919999837875366,6.109000205993652 -4.0929999351501465,4.642000198364258 -5.10099983215332,1.8250000476837158 C-6.109000205993652,-0.9919999837875366 -4.642000198364258,-4.0929999351501465 -1.8250000476837158,-5.10099983215332z"></path><path stroke-linecap="round" stroke-linejoin="round" fill-opacity="0" stroke="rgb(36,31,77)" stroke-opacity="1" stroke-width="2.206" d=" M-1.8250000476837158,-5.10099983215332 C0.9919999837875366,-6.109000205993652 4.0929999351501465,-4.642000198364258 5.10099983215332,-1.8250000476837158 C6.109000205993652,0.9929999709129333 4.642000198364258,4.0929999351501465 1.8250000476837158,5.10099983215332 C-0.9919999837875366,6.109000205993652 -4.0929999351501465,4.642000198364258 -5.10099983215332,1.8250000476837158 C-6.109000205993652,-0.9919999837875366 -4.642000198364258,-4.0929999351501465 -1.8250000476837158,-5.10099983215332z"></path></g></g><g opacity="1" transform="matrix(1,0,0,1,-204.07098388671875,57.993988037109375)"><g opacity="1" transform="matrix(0,0,0,0,353.1059875488281,186.031005859375)"><path fill="rgb(36,31,77)" fill-opacity="1" d=" M-1.434000015258789,-4.008999824523926 C0.7799999713897705,-4.802000045776367 3.2170000076293945,-3.6489999294281006 4.008999824523926,-1.434999942779541 C4.801000118255615,0.7789999842643738 3.6489999294281006,3.2170000076293945 1.434999942779541,4.008999824523926 C-0.7799999713897705,4.801000118255615 -3.2170000076293945,3.6489999294281006 -4.008999824523926,1.434999942779541 C-4.801000118255615,-0.7789999842643738 -3.6480000019073486,-3.2170000076293945 -1.434000015258789,-4.008999824523926z"></path><path stroke-linecap="round" stroke-linejoin="round" fill-opacity="0" stroke="rgb(36,31,77)" stroke-opacity="1" stroke-width="2.206" d=" M-1.434000015258789,-4.008999824523926 C0.7799999713897705,-4.802000045776367 3.2170000076293945,-3.6489999294281006 4.008999824523926,-1.434999942779541 C4.801000118255615,0.7789999842643738 3.6489999294281006,3.2170000076293945 1.434999942779541,4.008999824523926 C-0.7799999713897705,4.801000118255615 -3.2170000076293945,3.6489999294281006 -4.008999824523926,1.434999942779541 C-4.801000118255615,-0.7789999842643738 -3.6480000019073486,-3.2170000076293945 -1.434000015258789,-4.008999824523926z"></path></g></g></g><g transform="matrix(0,0,0,0,142.85110473632812,172.42311096191406)" opacity="1" style="display: none;"><g opacity="1" transform="matrix(1,0,0,1,-204.07101440429688,57.99400329589844)"><g opacity="1" transform="matrix(1,0,0,1,305.2820129394531,130.18099975585938)"><path fill="rgb(255,255,255)" fill-opacity="1" d=" M-10.628000259399414,10.628000259399414 C-10.628000259399414,10.628000259399414 -10.628000259399414,10.628000259399414 -10.628000259399414,10.628000259399414 C-10.628000259399414,-1.1109999418258667 -1.1119999885559082,-10.628000259399414 10.628000259399414,-10.628000259399414 C10.628000259399414,1.1109999418258667 1.1119999885559082,10.628000259399414 -10.628000259399414,10.628000259399414z"></path><path stroke-linecap="round" stroke-linejoin="round" fill-opacity="0" stroke="rgb(36,31,77)" stroke-opacity="1" stroke-width="2.206" d=" M-10.628000259399414,10.628000259399414 C-10.628000259399414,10.628000259399414 -10.628000259399414,10.628000259399414 -10.628000259399414,10.628000259399414 C-10.628000259399414,-1.1109999418258667 -1.1119999885559082,-10.628000259399414 10.628000259399414,-10.628000259399414 C10.628000259399414,1.1109999418258667 1.1119999885559082,10.628000259399414 -10.628000259399414,10.628000259399414z"></path></g></g><g opacity="1" transform="matrix(1,0,0,1,-204.07101440429688,57.99400329589844)"><g opacity="1" transform="matrix(1,0,0,1,305.2820129394531,108.92500305175781)"><path fill="rgb(255,255,255)" fill-opacity="1" d=" M-10.628000259399414,-10.628999710083008 C-10.628000259399414,-10.628999710083008 -10.628000259399414,-10.628999710083008 -10.628000259399414,-10.628999710083008 C1.1119999885559082,-10.628999710083008 10.628000259399414,-1.1109999418258667 10.628000259399414,10.628999710083008 C-1.1119999885559082,10.628999710083008 -10.628000259399414,1.1100000143051147 -10.628000259399414,-10.628999710083008z"></path><path stroke-linecap="round" stroke-linejoin="round" fill-opacity="0" stroke="rgb(36,31,77)" stroke-opacity="1" stroke-width="2.206" d=" M-10.628000259399414,-10.628999710083008 C-10.628000259399414,-10.628999710083008 -10.628000259399414,-10.628999710083008 -10.628000259399414,-10.628999710083008 C1.1119999885559082,-10.628999710083008 10.628000259399414,-1.1109999418258667 10.628000259399414,10.628999710083008 C-1.1119999885559082,10.628999710083008 -10.628000259399414,1.1100000143051147 -10.628000259399414,-10.628999710083008z"></path></g></g><g opacity="1" transform="matrix(1,0,0,1,-204.07098388671875,57.99400329589844)"><g opacity="1" transform="matrix(1,0,0,1,329.0509948730469,122.65299987792969)"><path stroke-linecap="round" stroke-linejoin="round" fill-opacity="0" stroke="rgb(36,31,77)" stroke-opacity="1" stroke-width="2.206" d=" M-13.140999794006348,-3.0999999046325684 C-13.140999794006348,-3.0999999046325684 -12.970999717712402,-3.0999999046325684 -12.970999717712402,-3.0999999046325684 C-3.9019999504089355,-3.0999999046325684 5.039999961853027,-0.9769999980926514 13.140999794006348,3.0999999046325684"></path></g></g></g><g transform="matrix(0,0,0,0,263.1307373046875,244.73948669433594)" opacity="1" style="display: none;"><g opacity="1" transform="matrix(1,0,0,1,-204.07098388671875,57.993988037109375)"><g opacity="1" transform="matrix(1,0,0,1,496.5639953613281,145.21400451660156)"><path fill="rgb(255,255,255)" fill-opacity="1" d=" M-7.215000152587891,-13.185999870300293 C-7.215000152587891,-13.185999870300293 -7.215000152587891,-13.185999870300293 -7.215000152587891,-13.185999870300293 C4.052000045776367,-9.887999534606934 10.512999534606934,1.9179999828338623 7.215000152587891,13.185999870300293 C-4.052000045776367,9.887999534606934 -10.51200008392334,-1.9179999828338623 -7.215000152587891,-13.185999870300293z"></path><path stroke-linecap="round" stroke-linejoin="round" fill-opacity="0" stroke="rgb(36,31,77)" stroke-opacity="1" stroke-width="2.206" d=" M-7.215000152587891,-13.185999870300293 C-7.215000152587891,-13.185999870300293 -7.215000152587891,-13.185999870300293 -7.215000152587891,-13.185999870300293 C4.052000045776367,-9.887999534606934 10.512999534606934,1.9179999828338623 7.215000152587891,13.185999870300293 C-4.052000045776367,9.887999534606934 -10.51200008392334,-1.9179999828338623 -7.215000152587891,-13.185999870300293z"></path></g></g><g opacity="1" transform="matrix(1,0,0,1,-204.07098388671875,57.99400329589844)"><g opacity="1" transform="matrix(1,0,0,1,516.9639892578125,151.18499755859375)"><path fill="rgb(255,255,255)" fill-opacity="1" d=" M13.185999870300293,-7.215000152587891 C13.185999870300293,-7.215000152587891 13.185999870300293,-7.215000152587891 13.185999870300293,-7.215000152587891 C9.888999938964844,4.052000045776367 -1.9179999828338623,10.512999534606934 -13.185999870300293,7.216000080108643 C-9.887999534606934,-4.052000045776367 1.9190000295639038,-10.512999534606934 13.185999870300293,-7.215000152587891z"></path><path stroke-linecap="round" stroke-linejoin="round" fill-opacity="0" stroke="rgb(36,31,77)" stroke-opacity="1" stroke-width="2.206" d=" M13.185999870300293,-7.215000152587891 C13.185999870300293,-7.215000152587891 13.185999870300293,-7.215000152587891 13.185999870300293,-7.215000152587891 C9.888999938964844,4.052000045776367 -1.9179999828338623,10.512999534606934 -13.185999870300293,7.216000080108643 C-9.887999534606934,-4.052000045776367 1.9190000295639038,-10.512999534606934 13.185999870300293,-7.215000152587891z"></path></g></g><g opacity="1" transform="matrix(1,0,0,1,-204.07098388671875,57.99400329589844)"><g opacity="1" transform="matrix(1,0,0,1,487.97698974609375,168.32000732421875)"><path stroke-linecap="round" stroke-linejoin="round" fill-opacity="0" stroke="rgb(36,31,77)" stroke-opacity="1" stroke-width="2.206" d=" M15.802000045776367,-9.918999671936035 C15.802000045776367,-9.918999671936035 15.753000259399414,-9.755999565124512 15.753000259399414,-9.755999565124512 C12.093999862670898,2.749000072479248 -1.0089999437332153,9.918999671936035 -13.512999534606934,6.260000228881836 C-13.512999534606934,6.260000228881836 -15.802000045776367,5.590000152587891 -15.802000045776367,5.590000152587891"></path></g></g></g><g transform="matrix(0,0,0,0,231.398681640625,159.86204528808594)" opacity="1" style="display: none;"><g opacity="1" transform="matrix(1,0,0,1,-204.07101440429688,57.993995666503906)"><g opacity="1" transform="matrix(1,0,0,1,427.3160095214844,126.28800201416016)"><path fill="rgb(36,31,77)" fill-opacity="1" d=" M0,31.14900016784668 C0,31.14900016784668 -43.50400161743164,-12.354999542236328 -43.50400161743164,-12.354999542236328 C-43.50400161743164,-12.354999542236328 -39.74399948120117,-31.14900016784668 -39.74399948120117,-31.14900016784668 C-39.74399948120117,-31.14900016784668 39.74399948120117,-31.14900016784668 39.74399948120117,-31.14900016784668 C39.74399948120117,-31.14900016784668 43.50400161743164,-12.354999542236328 43.50400161743164,-12.354999542236328 C43.50400161743164,-12.354999542236328 0,31.14900016784668 0,31.14900016784668z"></path><path stroke-linecap="round" stroke-linejoin="round" fill-opacity="0" stroke="rgb(36,31,77)" stroke-opacity="1" stroke-width="2.206" d=" M0,31.14900016784668 C0,31.14900016784668 -43.50400161743164,-12.354999542236328 -43.50400161743164,-12.354999542236328 C-43.50400161743164,-12.354999542236328 -39.74399948120117,-31.14900016784668 -39.74399948120117,-31.14900016784668 C-39.74399948120117,-31.14900016784668 39.74399948120117,-31.14900016784668 39.74399948120117,-31.14900016784668 C39.74399948120117,-31.14900016784668 43.50400161743164,-12.354999542236328 43.50400161743164,-12.354999542236328 C43.50400161743164,-12.354999542236328 0,31.14900016784668 0,31.14900016784668z"></path></g></g><g opacity="1" transform="matrix(1,0,0,1,-204.07101440429688,57.993995666503906)"><g opacity="1" transform="matrix(1,0,0,1,427.3160095214844,95.13899993896484)"><path fill="rgb(255,255,255)" fill-opacity="1" d=" M0,39.74399948120117 C0,39.74399948120117 -39.74399948120117,0 -39.74399948120117,0 C-39.74399948120117,0 0,-39.74399948120117 0,-39.74399948120117 C0,-39.74399948120117 39.74399948120117,0 39.74399948120117,0 C39.74399948120117,0 0,39.74399948120117 0,39.74399948120117z"></path><path stroke-linecap="round" stroke-linejoin="round" fill-opacity="0" stroke="rgb(36,31,77)" stroke-opacity="1" stroke-width="2.206" d=" M0,39.74399948120117 C0,39.74399948120117 -39.74399948120117,0 -39.74399948120117,0 C-39.74399948120117,0 0,-39.74399948120117 0,-39.74399948120117 C0,-39.74399948120117 39.74399948120117,0 39.74399948120117,0 C39.74399948120117,0 0,39.74399948120117 0,39.74399948120117z"></path></g></g></g><g transform="matrix(0.9999989867210388,0,0,0.9999989867210388,0.0002203012554673478,0.00032284032204188406)" opacity="1" style="display: none;"><g opacity="1" transform="matrix(1,0,0,1,-204.0709991455078,57.993995666503906)"><g opacity="1" transform="matrix(1,0,0,1,389.0199890136719,118.56800079345703)"><path stroke-linecap="round" stroke-linejoin="round" fill-opacity="0" stroke="rgb(36,31,77)" stroke-opacity="1" stroke-width="2.206" d=" M-23.43400001525879,49.03499984741211 C-42.513999938964844,25.35099983215332 -40.08100128173828,-9.402000427246094 -17.299999237060547,-30.16200065612793 C-0.5529999732971191,-45.42300033569336 22.702999114990234,-49.03499984741211 42.513999938964844,-41.459999084472656"></path></g></g><g opacity="1" transform="matrix(1,0,0,1,-204.07101440429688,57.993988037109375)"><g opacity="1" transform="matrix(1,0,0,1,365.739013671875,167.9320068359375)"><path fill="rgb(36,31,77)" fill-opacity="1" d=" M2.558000087738037,2.805999994277954 C1.0080000162124634,4.218999862670898 -1.3940000534057617,4.107999801635742 -2.806999921798706,2.556999921798706 C-4.21999979019165,1.0069999694824219 -4.107999801635742,-1.3949999809265137 -2.558000087738037,-2.806999921798706 C-1.0080000162124634,-4.21999979019165 1.3940000534057617,-4.109000205993652 2.806999921798706,-2.558000087738037 C4.21999979019165,-1.0080000162124634 4.107999801635742,1.3940000534057617 2.558000087738037,2.805999994277954z"></path><path stroke-linecap="round" stroke-linejoin="round" fill-opacity="0" stroke="rgb(36,31,77)" stroke-opacity="1" stroke-width="2.206" d=" M2.558000087738037,2.805999994277954 C1.0080000162124634,4.218999862670898 -1.3940000534057617,4.107999801635742 -2.806999921798706,2.556999921798706 C-4.21999979019165,1.0069999694824219 -4.107999801635742,-1.3949999809265137 -2.558000087738037,-2.806999921798706 C-1.0080000162124634,-4.21999979019165 1.3940000534057617,-4.109000205993652 2.806999921798706,-2.558000087738037 C4.21999979019165,-1.0080000162124634 4.107999801635742,1.3940000534057617 2.558000087738037,2.805999994277954z"></path></g></g><g opacity="1" transform="matrix(1,0,0,1,-204.0699920654297,57.993995666503906)"><g opacity="1" transform="matrix(1,0,0,1,431.4339904785156,77.19999694824219)"><path fill="rgb(36,31,77)" fill-opacity="1" d=" M2.010999917984009,2.2060000896453857 C0.7919999957084656,3.315999984741211 -1.0950000286102295,3.2279999256134033 -2.2049999237060547,2.009999990463257 C-3.315999984741211,0.7919999957084656 -3.2290000915527344,-1.0959999561309814 -2.010999917984009,-2.2060000896453857 C-0.7919999957084656,-3.315999984741211 1.0950000286102295,-3.2290000915527344 2.2049999237060547,-2.010999917984009 C3.315999984741211,-0.7919999957084656 3.2290000915527344,1.0959999561309814 2.010999917984009,2.2060000896453857z"></path><path stroke-linecap="round" stroke-linejoin="round" fill-opacity="0" stroke="rgb(36,31,77)" stroke-opacity="1" stroke-width="2.206" d=" M2.010999917984009,2.2060000896453857 C0.7919999957084656,3.315999984741211 -1.0950000286102295,3.2279999256134033 -2.2049999237060547,2.009999990463257 C-3.315999984741211,0.7919999957084656 -3.2290000915527344,-1.0959999561309814 -2.010999917984009,-2.2060000896453857 C-0.7919999957084656,-3.315999984741211 1.0950000286102295,-3.2290000915527344 2.2049999237060547,-2.010999917984009 C3.315999984741211,-0.7919999957084656 3.2290000915527344,1.0959999561309814 2.010999917984009,2.2060000896453857z"></path></g></g></g><g transform="matrix(0.9999989867210388,0,0,0.9999989867210388,-204.07064819335938,57.99402618408203)" opacity="1" style="display: none;"><g opacity="1" transform="matrix(1,0,0,1,347.4320068359375,127.28700256347656)"><path fill="rgb(255,0,112)" fill-opacity="1" d=" M9.723999977111816,0 C9.723999977111816,5.369999885559082 5.36899995803833,9.723999977111816 -0.0010000000474974513,9.723999977111816 C-5.370999813079834,9.723999977111816 -9.723999977111816,5.369999885559082 -9.723999977111816,0 C-9.723999977111816,-5.369999885559082 -5.370999813079834,-9.723999977111816 -0.0010000000474974513,-9.723999977111816 C5.36899995803833,-9.723999977111816 9.723999977111816,-5.369999885559082 9.723999977111816,0z"></path></g></g><g transform="matrix(0.9999989867210388,0,0,0.9999989867210388,-204.07081604003906,57.99378204345703)" opacity="1" style="display: none;"><g opacity="1" transform="matrix(1,0,0,1,497.7409973144531,172.95599365234375)"><path fill="rgb(255,0,112)" fill-opacity="1" d=" M9.723999977111816,0 C9.723999977111816,5.369999885559082 5.36899995803833,9.723999977111816 -0.0010000000474974513,9.723999977111816 C-5.370999813079834,9.723999977111816 -9.723999977111816,5.369999885559082 -9.723999977111816,0 C-9.723999977111816,-5.369999885559082 -5.370999813079834,-9.723999977111816 -0.0010000000474974513,-9.723999977111816 C5.36899995803833,-9.723999977111816 9.723999977111816,-5.369999885559082 9.723999977111816,0z"></path></g></g><g transform="matrix(0.9999989867210388,0,0,0.9999989867210388,-204.0709228515625,57.99380111694336)" opacity="1" style="display: none;"><g opacity="1" transform="matrix(1,0,0,1,357.156005859375,223.9600067138672)"><path fill="rgb(255,0,112)" fill-opacity="1" d=" M7.47599983215332,-0.0010000000474974513 C7.47599983215332,4.127999782562256 4.129000186920166,7.4770002365112305 0,7.4770002365112305 C-4.129000186920166,7.4770002365112305 -7.47599983215332,4.127999782562256 -7.47599983215332,-0.0010000000474974513 C-7.47599983215332,-4.129000186920166 -4.129000186920166,-7.4770002365112305 0,-7.4770002365112305 C4.129000186920166,-7.4770002365112305 7.47599983215332,-4.129000186920166 7.47599983215332,-0.0010000000474974513z"></path></g></g><g transform="matrix(0.9999989867210388,0,0,0.9999989867210388,-204.07041931152344,57.99422073364258)" opacity="1" style="display: none;"><g opacity="1" transform="matrix(1,0,0,1,359.8919982910156,105.03900146484375)"><path fill="rgb(255,0,112)" fill-opacity="1" d=" M4.739999771118164,0 C4.739999771118164,2.617000102996826 2.617000102996826,4.738999843597412 -0.0010000000474974513,4.738999843597412 C-2.618000030517578,4.738999843597412 -4.739999771118164,2.617000102996826 -4.739999771118164,0 C-4.739999771118164,-2.618000030517578 -2.618000030517578,-4.738999843597412 -0.0010000000474974513,-4.738999843597412 C2.617000102996826,-4.738999843597412 4.739999771118164,-2.618000030517578 4.739999771118164,0z"></path></g></g><g transform="matrix(0.9999989867210388,0,0,0.9999989867210388,-204.06991577148438,57.99384307861328)" opacity="1" style="display: none;"><g opacity="1" transform="matrix(1,0,0,1,486.7749938964844,195.1820068359375)"><path fill="rgb(255,0,112)" fill-opacity="1" d=" M4.739999771118164,0 C4.739999771118164,2.617000102996826 2.617000102996826,4.738999843597412 -0.0010000000474974513,4.738999843597412 C-2.618000030517578,4.738999843597412 -4.739999771118164,2.617000102996826 -4.739999771118164,0 C-4.739999771118164,-2.617000102996826 -2.618000030517578,-4.738999843597412 -0.0010000000474974513,-4.738999843597412 C2.617000102996826,-4.738999843597412 4.739999771118164,-2.617000102996826 4.739999771118164,0z"></path></g></g><g transform="matrix(0.9999989867210388,0,0,0.9999989867210388,0.00031002293690107763,0.0004638315294869244)" opacity="1" style="display: none;"><g opacity="1" transform="matrix(1,0,0,1,-204.0709991455078,57.99400329589844)"><g opacity="1" transform="matrix(1,0,0,1,350.7239990234375,147.54299926757812)"><path stroke-linecap="round" stroke-linejoin="round" fill-opacity="0" stroke="rgb(36,31,77)" stroke-opacity="1" stroke-width="2.206" d=" M44.029998779296875,88.7770004272461 C-5.105000019073486,85.78299713134766 -44.029998779296875,44.986000061035156 -44.029998779296875,-4.9029998779296875 C-44.029998779296875,-41.57500076293945 -22.996999740600586,-73.33399963378906 7.663000106811523,-88.7770004272461"></path></g></g><g opacity="1" transform="matrix(1,0,0,1,-204.0709991455078,57.99400329589844)"><g opacity="1" transform="matrix(1,0,0,1,395.3139953613281,236.4969940185547)"><path fill="rgb(36,31,77)" fill-opacity="1" d=" M6.146999835968018,0 C6.146999835968018,3.3949999809265137 3.3940000534057617,6.145999908447266 -0.0010000000474974513,6.145999908447266 C-3.3959999084472656,6.145999908447266 -6.146999835968018,3.3949999809265137 -6.146999835968018,0 C-6.146999835968018,-3.3959999084472656 -3.3959999084472656,-6.145999908447266 -0.0010000000474974513,-6.145999908447266 C3.3940000534057617,-6.145999908447266 6.146999835968018,-3.3959999084472656 6.146999835968018,0z"></path><path stroke-linecap="round" stroke-linejoin="round" fill-opacity="0" stroke="rgb(36,31,77)" stroke-opacity="1" stroke-width="2.206" d=" M6.146999835968018,0 C6.146999835968018,3.3949999809265137 3.3940000534057617,6.145999908447266 -0.0010000000474974513,6.145999908447266 C-3.3959999084472656,6.145999908447266 -6.146999835968018,3.3949999809265137 -6.146999835968018,0 C-6.146999835968018,-3.3959999084472656 -3.3959999084472656,-6.145999908447266 -0.0010000000474974513,-6.145999908447266 C3.3940000534057617,-6.145999908447266 6.146999835968018,-3.3959999084472656 6.146999835968018,0z"></path></g></g><g opacity="1" transform="matrix(1,0,0,1,-204.07000732421875,57.99500274658203)"><g opacity="1" transform="matrix(1,0,0,1,358.38800048828125,58.986000061035156)"><path fill="rgb(36,31,77)" fill-opacity="1" d=" M4.830999851226807,0 C4.830999851226807,2.6679999828338623 2.6670000553131104,4.830999851226807 -0.0010000000474974513,4.830999851226807 C-2.6689999103546143,4.830999851226807 -4.830999851226807,2.6679999828338623 -4.830999851226807,0 C-4.830999851226807,-2.6679999828338623 -2.6689999103546143,-4.830999851226807 -0.0010000000474974513,-4.830999851226807 C2.6670000553131104,-4.830999851226807 4.830999851226807,-2.6679999828338623 4.830999851226807,0z"></path><path stroke-linecap="round" stroke-linejoin="round" fill-opacity="0" stroke="rgb(36,31,77)" stroke-opacity="1" stroke-width="2.206" d=" M4.830999851226807,0 C4.830999851226807,2.6679999828338623 2.6670000553131104,4.830999851226807 -0.0010000000474974513,4.830999851226807 C-2.6689999103546143,4.830999851226807 -4.830999851226807,2.6679999828338623 -4.830999851226807,0 C-4.830999851226807,-2.6679999828338623 -2.6689999103546143,-4.830999851226807 -0.0010000000474974513,-4.830999851226807 C2.6670000553131104,-4.830999851226807 4.830999851226807,-2.6679999828338623 4.830999851226807,0z"></path></g></g></g><g transform="matrix(0.9999948740005493,0,0,0.9999948740005493,0.00047664891462773085,0.0011047006119042635)" opacity="1" style="display: none;"><g opacity="1" transform="matrix(1,0,0,1,-204.07000732421875,57.99400329589844)"><g opacity="1" transform="matrix(1,0,0,1,427.25201416015625,159.08999633789062)"><path stroke-linecap="round" stroke-linejoin="round" fill-opacity="0" stroke="rgb(36,31,77)" stroke-opacity="1" stroke-width="2.206" d=" M62.224998474121094,-55.89099884033203 C74.3290023803711,-14.225000381469727 52.02899932861328,30.190000534057617 10.626999855041504,45.00299835205078 C-19.80699920654297,55.89099884033203 -52.40800094604492,47.867000579833984 -74.3280029296875,27.006999969482422"></path></g></g><g opacity="1" transform="matrix(1,0,0,1,-204.07101440429688,57.993995666503906)"><g opacity="1" transform="matrix(1,0,0,1,489.4570007324219,102.68199920654297)"><path fill="rgb(36,31,77)" fill-opacity="1" d=" M-1.8250000476837158,-5.10099983215332 C0.9919999837875366,-6.109000205993652 4.0929999351501465,-4.642000198364258 5.10099983215332,-1.8250000476837158 C6.109000205993652,0.9929999709129333 4.642000198364258,4.0929999351501465 1.8250000476837158,5.10099983215332 C-0.9919999837875366,6.109000205993652 -4.0929999351501465,4.642000198364258 -5.10099983215332,1.8250000476837158 C-6.109000205993652,-0.9919999837875366 -4.642000198364258,-4.0929999351501465 -1.8250000476837158,-5.10099983215332z"></path><path stroke-linecap="round" stroke-linejoin="round" fill-opacity="0" stroke="rgb(36,31,77)" stroke-opacity="1" stroke-width="2.206" d=" M-1.8250000476837158,-5.10099983215332 C0.9919999837875366,-6.109000205993652 4.0929999351501465,-4.642000198364258 5.10099983215332,-1.8250000476837158 C6.109000205993652,0.9929999709129333 4.642000198364258,4.0929999351501465 1.8250000476837158,5.10099983215332 C-0.9919999837875366,6.109000205993652 -4.0929999351501465,4.642000198364258 -5.10099983215332,1.8250000476837158 C-6.109000205993652,-0.9919999837875366 -4.642000198364258,-4.0929999351501465 -1.8250000476837158,-5.10099983215332z"></path></g></g><g opacity="1" transform="matrix(1,0,0,1,-204.07098388671875,57.993988037109375)"><g opacity="1" transform="matrix(1,0,0,1,353.1059875488281,186.031005859375)"><path fill="rgb(36,31,77)" fill-opacity="1" d=" M-1.434000015258789,-4.008999824523926 C0.7799999713897705,-4.802000045776367 3.2170000076293945,-3.6489999294281006 4.008999824523926,-1.434999942779541 C4.801000118255615,0.7789999842643738 3.6489999294281006,3.2170000076293945 1.434999942779541,4.008999824523926 C-0.7799999713897705,4.801000118255615 -3.2170000076293945,3.6489999294281006 -4.008999824523926,1.434999942779541 C-4.801000118255615,-0.7789999842643738 -3.6480000019073486,-3.2170000076293945 -1.434000015258789,-4.008999824523926z"></path><path stroke-linecap="round" stroke-linejoin="round" fill-opacity="0" stroke="rgb(36,31,77)" stroke-opacity="1" stroke-width="2.206" d=" M-1.434000015258789,-4.008999824523926 C0.7799999713897705,-4.802000045776367 3.2170000076293945,-3.6489999294281006 4.008999824523926,-1.434999942779541 C4.801000118255615,0.7789999842643738 3.6489999294281006,3.2170000076293945 1.434999942779541,4.008999824523926 C-0.7799999713897705,4.801000118255615 -3.2170000076293945,3.6489999294281006 -4.008999824523926,1.434999942779541 C-4.801000118255615,-0.7789999842643738 -3.6480000019073486,-3.2170000076293945 -1.434000015258789,-4.008999824523926z"></path></g></g></g><g transform="matrix(0.9999989867210388,0.000009919512194755953,-0.000009919512194755953,0.9999989867210388,0.002168543403968215,-0.0009076283895410597)" opacity="1" style="display: none;"><g opacity="1" transform="matrix(1,0,0,1,-204.07101440429688,57.99400329589844)"><g opacity="1" transform="matrix(1,0,0,1,305.2820129394531,130.18099975585938)"><path fill="rgb(255,255,255)" fill-opacity="1" d=" M-10.628000259399414,10.628000259399414 C-10.628000259399414,10.628000259399414 -10.628000259399414,10.628000259399414 -10.628000259399414,10.628000259399414 C-10.628000259399414,-1.1109999418258667 -1.1119999885559082,-10.628000259399414 10.628000259399414,-10.628000259399414 C10.628000259399414,1.1109999418258667 1.1119999885559082,10.628000259399414 -10.628000259399414,10.628000259399414z"></path><path stroke-linecap="round" stroke-linejoin="round" fill-opacity="0" stroke="rgb(36,31,77)" stroke-opacity="1" stroke-width="2.206" d=" M-10.628000259399414,10.628000259399414 C-10.628000259399414,10.628000259399414 -10.628000259399414,10.628000259399414 -10.628000259399414,10.628000259399414 C-10.628000259399414,-1.1109999418258667 -1.1119999885559082,-10.628000259399414 10.628000259399414,-10.628000259399414 C10.628000259399414,1.1109999418258667 1.1119999885559082,10.628000259399414 -10.628000259399414,10.628000259399414z"></path></g></g><g opacity="1" transform="matrix(1,0,0,1,-204.07101440429688,57.99400329589844)"><g opacity="1" transform="matrix(1,0,0,1,305.2820129394531,108.92500305175781)"><path fill="rgb(255,255,255)" fill-opacity="1" d=" M-10.628000259399414,-10.628999710083008 C-10.628000259399414,-10.628999710083008 -10.628000259399414,-10.628999710083008 -10.628000259399414,-10.628999710083008 C1.1119999885559082,-10.628999710083008 10.628000259399414,-1.1109999418258667 10.628000259399414,10.628999710083008 C-1.1119999885559082,10.628999710083008 -10.628000259399414,1.1100000143051147 -10.628000259399414,-10.628999710083008z"></path><path stroke-linecap="round" stroke-linejoin="round" fill-opacity="0" stroke="rgb(36,31,77)" stroke-opacity="1" stroke-width="2.206" d=" M-10.628000259399414,-10.628999710083008 C-10.628000259399414,-10.628999710083008 -10.628000259399414,-10.628999710083008 -10.628000259399414,-10.628999710083008 C1.1119999885559082,-10.628999710083008 10.628000259399414,-1.1109999418258667 10.628000259399414,10.628999710083008 C-1.1119999885559082,10.628999710083008 -10.628000259399414,1.1100000143051147 -10.628000259399414,-10.628999710083008z"></path></g></g><g opacity="1" transform="matrix(1,0,0,1,-204.07098388671875,57.99400329589844)"><g opacity="1" transform="matrix(1,0,0,1,329.0509948730469,122.65299987792969)"><path stroke-linecap="round" stroke-linejoin="round" fill-opacity="0" stroke="rgb(36,31,77)" stroke-opacity="1" stroke-width="2.206" d=" M-13.140999794006348,-3.0999999046325684 C-13.140999794006348,-3.0999999046325684 -12.970999717712402,-3.0999999046325684 -12.970999717712402,-3.0999999046325684 C-3.9019999504089355,-3.0999999046325684 5.039999961853027,-0.9769999980926514 13.140999794006348,3.0999999046325684"></path></g></g></g><g transform="matrix(0.9999989867210388,0.000006422383194149006,-0.000006422383194149006,0.9999989867210388,0.0014635873958468437,-0.0015484974719583988)" opacity="1" style="display: none;"><g opacity="1" transform="matrix(1,0,0,1,-204.07098388671875,57.993988037109375)"><g opacity="1" transform="matrix(1,0,0,1,496.5639953613281,145.21400451660156)"><path fill="rgb(255,255,255)" fill-opacity="1" d=" M-7.215000152587891,-13.185999870300293 C-7.215000152587891,-13.185999870300293 -7.215000152587891,-13.185999870300293 -7.215000152587891,-13.185999870300293 C4.052000045776367,-9.887999534606934 10.512999534606934,1.9179999828338623 7.215000152587891,13.185999870300293 C-4.052000045776367,9.887999534606934 -10.51200008392334,-1.9179999828338623 -7.215000152587891,-13.185999870300293z"></path><path stroke-linecap="round" stroke-linejoin="round" fill-opacity="0" stroke="rgb(36,31,77)" stroke-opacity="1" stroke-width="2.206" d=" M-7.215000152587891,-13.185999870300293 C-7.215000152587891,-13.185999870300293 -7.215000152587891,-13.185999870300293 -7.215000152587891,-13.185999870300293 C4.052000045776367,-9.887999534606934 10.512999534606934,1.9179999828338623 7.215000152587891,13.185999870300293 C-4.052000045776367,9.887999534606934 -10.51200008392334,-1.9179999828338623 -7.215000152587891,-13.185999870300293z"></path></g></g><g opacity="1" transform="matrix(1,0,0,1,-204.07098388671875,57.99400329589844)"><g opacity="1" transform="matrix(1,0,0,1,516.9639892578125,151.18499755859375)"><path fill="rgb(255,255,255)" fill-opacity="1" d=" M13.185999870300293,-7.215000152587891 C13.185999870300293,-7.215000152587891 13.185999870300293,-7.215000152587891 13.185999870300293,-7.215000152587891 C9.888999938964844,4.052000045776367 -1.9179999828338623,10.512999534606934 -13.185999870300293,7.216000080108643 C-9.887999534606934,-4.052000045776367 1.9190000295639038,-10.512999534606934 13.185999870300293,-7.215000152587891z"></path><path stroke-linecap="round" stroke-linejoin="round" fill-opacity="0" stroke="rgb(36,31,77)" stroke-opacity="1" stroke-width="2.206" d=" M13.185999870300293,-7.215000152587891 C13.185999870300293,-7.215000152587891 13.185999870300293,-7.215000152587891 13.185999870300293,-7.215000152587891 C9.888999938964844,4.052000045776367 -1.9179999828338623,10.512999534606934 -13.185999870300293,7.216000080108643 C-9.887999534606934,-4.052000045776367 1.9190000295639038,-10.512999534606934 13.185999870300293,-7.215000152587891z"></path></g></g><g opacity="1" transform="matrix(1,0,0,1,-204.07098388671875,57.99400329589844)"><g opacity="1" transform="matrix(1,0,0,1,487.97698974609375,168.32000732421875)"><path stroke-linecap="round" stroke-linejoin="round" fill-opacity="0" stroke="rgb(36,31,77)" stroke-opacity="1" stroke-width="2.206" d=" M15.802000045776367,-9.918999671936035 C15.802000045776367,-9.918999671936035 15.753000259399414,-9.755999565124512 15.753000259399414,-9.755999565124512 C12.093999862670898,2.749000072479248 -1.0089999437332153,9.918999671936035 -13.512999534606934,6.260000228881836 C-13.512999534606934,6.260000228881836 -15.802000045776367,5.590000152587891 -15.802000045776367,5.590000152587891"></path></g></g></g><g transform="matrix(0.9999989867210388,0,0,0.9999989867210388,0.0003612924774643034,0.0002203012554673478)" opacity="1" style="display: none;"><g opacity="1" transform="matrix(1,0,0,1,-204.07101440429688,57.993995666503906)"><g opacity="1" transform="matrix(1,0,0,1,427.3160095214844,126.28800201416016)"><path fill="rgb(36,31,77)" fill-opacity="1" d=" M0,31.14900016784668 C0,31.14900016784668 -43.50400161743164,-12.354999542236328 -43.50400161743164,-12.354999542236328 C-43.50400161743164,-12.354999542236328 -39.74399948120117,-31.14900016784668 -39.74399948120117,-31.14900016784668 C-39.74399948120117,-31.14900016784668 39.74399948120117,-31.14900016784668 39.74399948120117,-31.14900016784668 C39.74399948120117,-31.14900016784668 43.50400161743164,-12.354999542236328 43.50400161743164,-12.354999542236328 C43.50400161743164,-12.354999542236328 0,31.14900016784668 0,31.14900016784668z"></path><path stroke-linecap="round" stroke-linejoin="round" fill-opacity="0" stroke="rgb(36,31,77)" stroke-opacity="1" stroke-width="2.206" d=" M0,31.14900016784668 C0,31.14900016784668 -43.50400161743164,-12.354999542236328 -43.50400161743164,-12.354999542236328 C-43.50400161743164,-12.354999542236328 -39.74399948120117,-31.14900016784668 -39.74399948120117,-31.14900016784668 C-39.74399948120117,-31.14900016784668 39.74399948120117,-31.14900016784668 39.74399948120117,-31.14900016784668 C39.74399948120117,-31.14900016784668 43.50400161743164,-12.354999542236328 43.50400161743164,-12.354999542236328 C43.50400161743164,-12.354999542236328 0,31.14900016784668 0,31.14900016784668z"></path></g></g><g opacity="1" transform="matrix(1,0,0,1,-204.07101440429688,57.993995666503906)"><g opacity="1" transform="matrix(1,0,0,1,427.3160095214844,95.13899993896484)"><path fill="rgb(255,255,255)" fill-opacity="1" d=" M0,39.74399948120117 C0,39.74399948120117 -39.74399948120117,0 -39.74399948120117,0 C-39.74399948120117,0 0,-39.74399948120117 0,-39.74399948120117 C0,-39.74399948120117 39.74399948120117,0 39.74399948120117,0 C39.74399948120117,0 0,39.74399948120117 0,39.74399948120117z"></path><path stroke-linecap="round" stroke-linejoin="round" fill-opacity="0" stroke="rgb(36,31,77)" stroke-opacity="1" stroke-width="2.206" d=" M0,39.74399948120117 C0,39.74399948120117 -39.74399948120117,0 -39.74399948120117,0 C-39.74399948120117,0 0,-39.74399948120117 0,-39.74399948120117 C0,-39.74399948120117 39.74399948120117,0 39.74399948120117,0 C39.74399948120117,0 0,39.74399948120117 0,39.74399948120117z"></path></g></g></g><g transform="matrix(1,0,0,1,200,200)" opacity="1" style="display: none;"><g opacity="1" transform="matrix(1,0,0,1,0,-1)"><path stroke-linecap="round" stroke-linejoin="miter" fill-opacity="0" stroke-miterlimit="4" stroke="rgb(255,0,113)" stroke-opacity="1" stroke-width="0" d="M0 0"></path></g></g><g transform="matrix(0.4966290593147278,0.6885931491851807,-0.6885931491851807,0.4966290593147278,200,200)" opacity="1" style="display: none;"><g opacity="1" transform="matrix(1,0,0,1,0,-1)"><path stroke-linecap="round" stroke-linejoin="miter" fill-opacity="0" stroke-miterlimit="4" stroke="rgb(255,0,113)" stroke-opacity="1" stroke-width="0" d="M0 0"></path></g></g><g transform="matrix(1.0930753946304321,1.10458242893219,-1.10458242893219,1.0930753946304321,200,200)" opacity="1" style="display: none;"><g opacity="1" transform="matrix(1,0,0,1,0,-1)"><path stroke-linecap="round" stroke-linejoin="miter" fill-opacity="0" stroke-miterlimit="4" stroke="rgb(255,0,113)" stroke-opacity="1" stroke-width="0" d="M0 0"></path></g></g><g transform="matrix(-1.1121865510940552,-1.0853374004364014,1.0853374004364014,-1.1121865510940552,200,200)" opacity="1" style="display: none;"><g opacity="1" transform="matrix(1,0,0,1,0,-1)"><path stroke-linecap="round" stroke-linejoin="miter" fill-opacity="0" stroke-miterlimit="4" stroke="rgb(37,32,77)" stroke-opacity="1" stroke-width="0" d="M0 0"></path></g></g><g transform="matrix(-0.6570059061050415,-0.6411452293395996,0.6411452293395996,-0.6570059061050415,200,200)" opacity="1" style="display: none;"><g opacity="1" transform="matrix(1,0,0,1,0,-1)"><path stroke-linecap="round" stroke-linejoin="miter" fill-opacity="0" stroke-miterlimit="4" stroke="rgb(37,32,77)" stroke-opacity="1" stroke-width="0" d="M0 0"></path></g></g><g transform="matrix(1,0,0,1,200,200)" opacity="1" style="display: none;"><g opacity="1" transform="matrix(1,0,0,1,0,-1)"><path stroke-linecap="round" stroke-linejoin="miter" fill-opacity="0" stroke-miterlimit="4" stroke="rgb(255,0,113)" stroke-opacity="1" stroke-width="0" d="M0 0"></path></g></g><g transform="matrix(0.4966290593147278,0.6885931491851807,-0.6885931491851807,0.4966290593147278,200,200)" opacity="1" style="display: none;"><g opacity="1" transform="matrix(1,0,0,1,0,-1)"><path stroke-linecap="round" stroke-linejoin="miter" fill-opacity="0" stroke-miterlimit="4" stroke="rgb(255,0,113)" stroke-opacity="1" stroke-width="0" d="M0 0"></path></g></g><g transform="matrix(1.0930753946304321,1.10458242893219,-1.10458242893219,1.0930753946304321,200,200)" opacity="1" style="display: none;"><g opacity="1" transform="matrix(1,0,0,1,0,-1)"><path stroke-linecap="round" stroke-linejoin="miter" fill-opacity="0" stroke-miterlimit="4" stroke="rgb(255,0,113)" stroke-opacity="1" stroke-width="0" d="M0 0"></path></g></g><g transform="matrix(-1.1121865510940552,-1.0853374004364014,1.0853374004364014,-1.1121865510940552,200,200)" opacity="1" style="display: none;"><g opacity="1" transform="matrix(1,0,0,1,0,-1)"><path stroke-linecap="round" stroke-linejoin="miter" fill-opacity="0" stroke-miterlimit="4" stroke="rgb(37,32,77)" stroke-opacity="1" stroke-width="0" d="M0 0"></path></g></g><g transform="matrix(-0.6570059061050415,-0.6411452293395996,0.6411452293395996,-0.6570059061050415,200,200)" opacity="1" style="display: none;"><g opacity="1" transform="matrix(1,0,0,1,0,-1)"><path stroke-linecap="round" stroke-linejoin="miter" fill-opacity="0" stroke-miterlimit="4" stroke="rgb(37,32,77)" stroke-opacity="1" stroke-width="0" d="M0 0"></path></g></g></g></svg>